<svg width="100%" height="100%" id="svg" viewBox="0 0 1440 600" xmlns="http://www.w3.org/2000/svg" class="transition duration-300 ease-in-out delay-150"><defs><linearGradient id="gradient" x1="0%" y1="50%" x2="100%" y2="50%"><stop offset="5%" stop-color="#002bdc88"></stop><stop offset="95%" stop-color="#32ded488"></stop></linearGradient></defs><path d="M 0,600 C 0,600 0,200 0,200 C 60.669856459330134,173.92344497607655 121.33971291866027,147.8468899521531 239,134 C 356.66028708133973,120.1531100478469 531.311004784689,118.5358851674641 629,125 C 726.688995215311,131.4641148325359 747.4162679425838,146.00956937799043 839,164 C 930.5837320574162,181.99043062200957 1093.0239234449762,203.42583732057417 1205,210 C 1316.9760765550238,216.57416267942583 1378.4880382775118,208.28708133971293 1440,200 C 1440,200 1440,600 1440,600 Z" stroke="none" stroke-width="0" fill="url(#gradient)" class="transition-all duration-300 ease-in-out delay-150 path-0"></path><defs><linearGradient id="gradient" x1="0%" y1="50%" x2="100%" y2="50%"><stop offset="5%" stop-color="#002bdcff"></stop><stop offset="95%" stop-color="#32ded4ff"></stop></linearGradient></defs><path d="M 0,600 C 0,600 0,400 0,400 C 102.36363636363635,372.2392344497608 204.7272727272727,344.47846889952154 300,330 C 395.2727272727273,315.52153110047846 483.4545454545455,314.32535885167465 590,325 C 696.5454545454545,335.67464114832535 821.4545454545454,358.22009569377985 913,385 C 1004.5454545454546,411.77990430622015 1062.7272727272727,442.79425837320576 1145,446 C 1227.2727272727273,449.20574162679424 1333.6363636363635,424.6028708133971 1440,400 C 1440,400 1440,600 1440,600 Z" stroke="none" stroke-width="0" fill="url(#gradient)" class="transition-all duration-300 ease-in-out delay-150 path-1"></path></svg>