<svg width="32" height="32" viewBox="0 0 32 32" fill="none" xmlns="http://www.w3.org/2000/svg">
<path d="M23 6V16H28C28.1978 16 28.391 16.0587 28.5555 16.1686C28.7199 16.2785 28.848 16.4346 28.9237 16.6173C28.9993 16.8 29.0192 17.0011 28.9806 17.195C28.942 17.389 28.8468 17.5671 28.707 17.707L16.707 29.707C16.5195 29.8945 16.2652 29.9998 16 29.9998C15.7348 29.9998 15.4805 29.8945 15.293 29.707L3.293 17.707C3.15319 17.5671 3.05798 17.389 3.01942 17.195C2.98085 17.0011 3.00065 16.8 3.07632 16.6173C3.15199 16.4346 3.28013 16.2785 3.44454 16.1686C3.60895 16.0587 3.80225 16 4 16H9V6C9.00053 5.46973 9.21141 4.96133 9.58637 4.58637C9.96133 4.21141 10.4697 4.00053 11 4H21C21.5302 4.00079 22.0384 4.21176 22.4133 4.58666C22.7882 4.96156 22.9992 5.46981 23 6V6ZM16 27.586L25.586 18H21V6H11V18H6.414L16 27.586Z" fill="#0DA0F2"/>
</svg>
