<svg width="100%" height="100%" id="svg" viewBox="0 0 1440 600" xmlns="http://www.w3.org/2000/svg" class="transition duration-300 ease-in-out delay-150"><defs><linearGradient id="gradient" x1="0%" y1="50%" x2="100%" y2="50%"><stop offset="5%" stop-color="#002bdc88"></stop><stop offset="95%" stop-color="#32ded488"></stop></linearGradient></defs><path d="M 0,600 C 0,600 0,200 0,200 C 86.91866028708134,190.35406698564594 173.83732057416267,180.70813397129186 280,191 C 386.1626794258373,201.29186602870814 511.56937799043067,231.52153110047846 606,244 C 700.4306220095693,256.47846889952154 763.8851674641147,251.2057416267943 858,222 C 952.1148325358853,192.7942583732057 1076.88995215311,139.6555023923445 1179,132 C 1281.11004784689,124.34449760765553 1360.5550239234449,162.17224880382776 1440,200 C 1440,200 1440,600 1440,600 Z" stroke="none" stroke-width="0" fill="url(#gradient)" class="transition-all duration-300 ease-in-out delay-150 path-0"></path><defs><linearGradient id="gradient" x1="0%" y1="50%" x2="100%" y2="50%"><stop offset="5%" stop-color="#002bdcff"></stop><stop offset="95%" stop-color="#32ded4ff"></stop></linearGradient></defs><path d="M 0,600 C 0,600 0,400 0,400 C 121.58851674641147,376.71770334928226 243.17703349282294,353.4354066985646 338,348 C 432.82296650717706,342.5645933014354 500.88038277511964,354.97607655502395 578,365 C 655.1196172248804,375.02392344497605 741.3014354066986,382.6602870813397 837,389 C 932.6985645933014,395.3397129186603 1037.9138755980862,400.38277511961724 1140,402 C 1242.0861244019138,403.61722488038276 1341.043062200957,401.8086124401914 1440,400 C 1440,400 1440,600 1440,600 Z" stroke="none" stroke-width="0" fill="url(#gradient)" class="transition-all duration-300 ease-in-out delay-150 path-1"></path></svg>